<mxfile host="app.diagrams.net" modified="2023-10-31T05:13:00.089Z" agent="Mozilla/5.0 (Windows NT 10.0; Win64; x64) AppleWebKit/537.36 (KHTML, like Gecko) Chrome/118.0.0.0 Safari/537.36" etag="C2ayWpJd0jHPFcxEnC0D" version="22.0.8" type="device">
  <diagram name="Page-1" id="I0f7oi-FyCoHhB2Qa50A">
    <mxGraphModel dx="880" dy="446" grid="1" gridSize="10" guides="1" tooltips="1" connect="1" arrows="1" fold="1" page="1" pageScale="1" pageWidth="850" pageHeight="1100" math="0" shadow="0">
      <root>
        <mxCell id="0" />
        <mxCell id="1" parent="0" />
        <mxCell id="NIIuqCuvEjQFVi8mQOJj-1" value="Admin" style="whiteSpace=wrap;html=1;align=center;fontSize=12;" vertex="1" parent="1">
          <mxGeometry x="230" y="150" width="100" height="40" as="geometry" />
        </mxCell>
        <mxCell id="NIIuqCuvEjQFVi8mQOJj-14" value="Admin ID" style="ellipse;whiteSpace=wrap;html=1;align=center;fontStyle=4;fontSize=12;" vertex="1" parent="1">
          <mxGeometry x="40" y="30" width="100" height="40" as="geometry" />
        </mxCell>
        <mxCell id="NIIuqCuvEjQFVi8mQOJj-15" value="Name" style="ellipse;whiteSpace=wrap;html=1;align=center;fontSize=12;" vertex="1" parent="1">
          <mxGeometry x="150" y="30" width="100" height="40" as="geometry" />
        </mxCell>
        <mxCell id="NIIuqCuvEjQFVi8mQOJj-17" value="Email" style="ellipse;whiteSpace=wrap;html=1;align=center;fontSize=12;" vertex="1" parent="1">
          <mxGeometry x="260" y="30" width="100" height="40" as="geometry" />
        </mxCell>
        <mxCell id="NIIuqCuvEjQFVi8mQOJj-18" value="Password" style="ellipse;whiteSpace=wrap;html=1;align=center;fontSize=12;" vertex="1" parent="1">
          <mxGeometry x="390" y="30" width="100" height="40" as="geometry" />
        </mxCell>
        <mxCell id="NIIuqCuvEjQFVi8mQOJj-20" value="Role" style="ellipse;whiteSpace=wrap;html=1;align=center;fontSize=12;" vertex="1" parent="1">
          <mxGeometry x="510" y="30" width="100" height="40" as="geometry" />
        </mxCell>
        <mxCell id="NIIuqCuvEjQFVi8mQOJj-21" value="" style="endArrow=none;html=1;rounded=0;fontSize=12;" edge="1" parent="1" source="NIIuqCuvEjQFVi8mQOJj-14" target="NIIuqCuvEjQFVi8mQOJj-1">
          <mxGeometry relative="1" as="geometry">
            <mxPoint x="90" y="180" as="sourcePoint" />
            <mxPoint x="250" y="180" as="targetPoint" />
          </mxGeometry>
        </mxCell>
        <mxCell id="NIIuqCuvEjQFVi8mQOJj-22" value="" style="endArrow=none;html=1;rounded=0;exitX=0.28;exitY=0.925;exitDx=0;exitDy=0;exitPerimeter=0;entryX=0.94;entryY=0.025;entryDx=0;entryDy=0;entryPerimeter=0;fontSize=12;" edge="1" parent="1" source="NIIuqCuvEjQFVi8mQOJj-20" target="NIIuqCuvEjQFVi8mQOJj-1">
          <mxGeometry relative="1" as="geometry">
            <mxPoint x="127" y="77" as="sourcePoint" />
            <mxPoint x="258" y="160" as="targetPoint" />
          </mxGeometry>
        </mxCell>
        <mxCell id="NIIuqCuvEjQFVi8mQOJj-23" value="" style="endArrow=none;html=1;rounded=0;exitX=0;exitY=1;exitDx=0;exitDy=0;entryX=0.75;entryY=0;entryDx=0;entryDy=0;fontSize=12;" edge="1" parent="1" source="NIIuqCuvEjQFVi8mQOJj-18" target="NIIuqCuvEjQFVi8mQOJj-1">
          <mxGeometry relative="1" as="geometry">
            <mxPoint x="137" y="87" as="sourcePoint" />
            <mxPoint x="268" y="170" as="targetPoint" />
          </mxGeometry>
        </mxCell>
        <mxCell id="NIIuqCuvEjQFVi8mQOJj-24" value="" style="endArrow=none;html=1;rounded=0;fontSize=12;" edge="1" parent="1" source="NIIuqCuvEjQFVi8mQOJj-17" target="NIIuqCuvEjQFVi8mQOJj-1">
          <mxGeometry relative="1" as="geometry">
            <mxPoint x="147" y="97" as="sourcePoint" />
            <mxPoint x="278" y="180" as="targetPoint" />
          </mxGeometry>
        </mxCell>
        <mxCell id="NIIuqCuvEjQFVi8mQOJj-25" value="" style="endArrow=none;html=1;rounded=0;exitX=0.5;exitY=1;exitDx=0;exitDy=0;fontSize=12;" edge="1" parent="1" source="NIIuqCuvEjQFVi8mQOJj-15" target="NIIuqCuvEjQFVi8mQOJj-1">
          <mxGeometry relative="1" as="geometry">
            <mxPoint x="157" y="107" as="sourcePoint" />
            <mxPoint x="288" y="190" as="targetPoint" />
          </mxGeometry>
        </mxCell>
        <mxCell id="NIIuqCuvEjQFVi8mQOJj-35" value="Stock picker" style="whiteSpace=wrap;html=1;align=center;" vertex="1" parent="1">
          <mxGeometry x="480" y="380" width="100" height="40" as="geometry" />
        </mxCell>
        <mxCell id="NIIuqCuvEjQFVi8mQOJj-36" value="Picker ID" style="ellipse;whiteSpace=wrap;html=1;align=center;fontStyle=4;" vertex="1" parent="1">
          <mxGeometry x="290" y="260" width="100" height="40" as="geometry" />
        </mxCell>
        <mxCell id="NIIuqCuvEjQFVi8mQOJj-37" value="Name" style="ellipse;whiteSpace=wrap;html=1;align=center;" vertex="1" parent="1">
          <mxGeometry x="400" y="260" width="100" height="40" as="geometry" />
        </mxCell>
        <mxCell id="NIIuqCuvEjQFVi8mQOJj-38" value="Email" style="ellipse;whiteSpace=wrap;html=1;align=center;" vertex="1" parent="1">
          <mxGeometry x="510" y="260" width="100" height="40" as="geometry" />
        </mxCell>
        <mxCell id="NIIuqCuvEjQFVi8mQOJj-39" value="Password" style="ellipse;whiteSpace=wrap;html=1;align=center;" vertex="1" parent="1">
          <mxGeometry x="640" y="260" width="100" height="40" as="geometry" />
        </mxCell>
        <mxCell id="NIIuqCuvEjQFVi8mQOJj-40" value="Role" style="ellipse;whiteSpace=wrap;html=1;align=center;" vertex="1" parent="1">
          <mxGeometry x="760" y="260" width="100" height="40" as="geometry" />
        </mxCell>
        <mxCell id="NIIuqCuvEjQFVi8mQOJj-41" value="" style="endArrow=none;html=1;rounded=0;" edge="1" parent="1" source="NIIuqCuvEjQFVi8mQOJj-36" target="NIIuqCuvEjQFVi8mQOJj-35">
          <mxGeometry relative="1" as="geometry">
            <mxPoint x="340" y="410" as="sourcePoint" />
            <mxPoint x="500" y="410" as="targetPoint" />
          </mxGeometry>
        </mxCell>
        <mxCell id="NIIuqCuvEjQFVi8mQOJj-42" value="" style="endArrow=none;html=1;rounded=0;exitX=0.28;exitY=0.925;exitDx=0;exitDy=0;exitPerimeter=0;entryX=0.94;entryY=0.025;entryDx=0;entryDy=0;entryPerimeter=0;" edge="1" parent="1" source="NIIuqCuvEjQFVi8mQOJj-40" target="NIIuqCuvEjQFVi8mQOJj-35">
          <mxGeometry relative="1" as="geometry">
            <mxPoint x="377" y="307" as="sourcePoint" />
            <mxPoint x="508" y="390" as="targetPoint" />
          </mxGeometry>
        </mxCell>
        <mxCell id="NIIuqCuvEjQFVi8mQOJj-43" value="" style="endArrow=none;html=1;rounded=0;exitX=0;exitY=1;exitDx=0;exitDy=0;entryX=0.75;entryY=0;entryDx=0;entryDy=0;" edge="1" parent="1" source="NIIuqCuvEjQFVi8mQOJj-39" target="NIIuqCuvEjQFVi8mQOJj-35">
          <mxGeometry relative="1" as="geometry">
            <mxPoint x="387" y="317" as="sourcePoint" />
            <mxPoint x="518" y="400" as="targetPoint" />
          </mxGeometry>
        </mxCell>
        <mxCell id="NIIuqCuvEjQFVi8mQOJj-44" value="" style="endArrow=none;html=1;rounded=0;" edge="1" parent="1" source="NIIuqCuvEjQFVi8mQOJj-38" target="NIIuqCuvEjQFVi8mQOJj-35">
          <mxGeometry relative="1" as="geometry">
            <mxPoint x="397" y="327" as="sourcePoint" />
            <mxPoint x="528" y="410" as="targetPoint" />
          </mxGeometry>
        </mxCell>
        <mxCell id="NIIuqCuvEjQFVi8mQOJj-45" value="" style="endArrow=none;html=1;rounded=0;exitX=0.5;exitY=1;exitDx=0;exitDy=0;" edge="1" parent="1" source="NIIuqCuvEjQFVi8mQOJj-37" target="NIIuqCuvEjQFVi8mQOJj-35">
          <mxGeometry relative="1" as="geometry">
            <mxPoint x="407" y="337" as="sourcePoint" />
            <mxPoint x="538" y="420" as="targetPoint" />
          </mxGeometry>
        </mxCell>
        <mxCell id="NIIuqCuvEjQFVi8mQOJj-56" value="Packaging operator" style="whiteSpace=wrap;html=1;align=center;" vertex="1" parent="1">
          <mxGeometry x="480" y="570" width="100" height="40" as="geometry" />
        </mxCell>
        <mxCell id="NIIuqCuvEjQFVi8mQOJj-57" value="Operator ID " style="ellipse;whiteSpace=wrap;html=1;align=center;fontStyle=4;" vertex="1" parent="1">
          <mxGeometry x="290" y="450" width="100" height="40" as="geometry" />
        </mxCell>
        <mxCell id="NIIuqCuvEjQFVi8mQOJj-58" value="Name" style="ellipse;whiteSpace=wrap;html=1;align=center;" vertex="1" parent="1">
          <mxGeometry x="400" y="450" width="100" height="40" as="geometry" />
        </mxCell>
        <mxCell id="NIIuqCuvEjQFVi8mQOJj-59" value="Email" style="ellipse;whiteSpace=wrap;html=1;align=center;" vertex="1" parent="1">
          <mxGeometry x="510" y="450" width="100" height="40" as="geometry" />
        </mxCell>
        <mxCell id="NIIuqCuvEjQFVi8mQOJj-60" value="Password" style="ellipse;whiteSpace=wrap;html=1;align=center;" vertex="1" parent="1">
          <mxGeometry x="640" y="450" width="100" height="40" as="geometry" />
        </mxCell>
        <mxCell id="NIIuqCuvEjQFVi8mQOJj-61" value="Role" style="ellipse;whiteSpace=wrap;html=1;align=center;" vertex="1" parent="1">
          <mxGeometry x="760" y="450" width="100" height="40" as="geometry" />
        </mxCell>
        <mxCell id="NIIuqCuvEjQFVi8mQOJj-62" value="" style="endArrow=none;html=1;rounded=0;" edge="1" parent="1" source="NIIuqCuvEjQFVi8mQOJj-57" target="NIIuqCuvEjQFVi8mQOJj-56">
          <mxGeometry relative="1" as="geometry">
            <mxPoint x="340" y="600" as="sourcePoint" />
            <mxPoint x="500" y="600" as="targetPoint" />
          </mxGeometry>
        </mxCell>
        <mxCell id="NIIuqCuvEjQFVi8mQOJj-63" value="" style="endArrow=none;html=1;rounded=0;exitX=0.28;exitY=0.925;exitDx=0;exitDy=0;exitPerimeter=0;entryX=0.94;entryY=0.025;entryDx=0;entryDy=0;entryPerimeter=0;" edge="1" parent="1" source="NIIuqCuvEjQFVi8mQOJj-61" target="NIIuqCuvEjQFVi8mQOJj-56">
          <mxGeometry relative="1" as="geometry">
            <mxPoint x="377" y="497" as="sourcePoint" />
            <mxPoint x="508" y="580" as="targetPoint" />
          </mxGeometry>
        </mxCell>
        <mxCell id="NIIuqCuvEjQFVi8mQOJj-64" value="" style="endArrow=none;html=1;rounded=0;exitX=0;exitY=1;exitDx=0;exitDy=0;entryX=0.75;entryY=0;entryDx=0;entryDy=0;" edge="1" parent="1" source="NIIuqCuvEjQFVi8mQOJj-60" target="NIIuqCuvEjQFVi8mQOJj-56">
          <mxGeometry relative="1" as="geometry">
            <mxPoint x="387" y="507" as="sourcePoint" />
            <mxPoint x="518" y="590" as="targetPoint" />
          </mxGeometry>
        </mxCell>
        <mxCell id="NIIuqCuvEjQFVi8mQOJj-65" value="" style="endArrow=none;html=1;rounded=0;" edge="1" parent="1" source="NIIuqCuvEjQFVi8mQOJj-59" target="NIIuqCuvEjQFVi8mQOJj-56">
          <mxGeometry relative="1" as="geometry">
            <mxPoint x="397" y="517" as="sourcePoint" />
            <mxPoint x="528" y="600" as="targetPoint" />
          </mxGeometry>
        </mxCell>
        <mxCell id="NIIuqCuvEjQFVi8mQOJj-66" value="" style="endArrow=none;html=1;rounded=0;exitX=0.5;exitY=1;exitDx=0;exitDy=0;" edge="1" parent="1" source="NIIuqCuvEjQFVi8mQOJj-58" target="NIIuqCuvEjQFVi8mQOJj-56">
          <mxGeometry relative="1" as="geometry">
            <mxPoint x="407" y="527" as="sourcePoint" />
            <mxPoint x="538" y="610" as="targetPoint" />
          </mxGeometry>
        </mxCell>
        <mxCell id="NIIuqCuvEjQFVi8mQOJj-67" value="Label Printer" style="whiteSpace=wrap;html=1;align=center;" vertex="1" parent="1">
          <mxGeometry x="470" y="750" width="100" height="40" as="geometry" />
        </mxCell>
        <mxCell id="NIIuqCuvEjQFVi8mQOJj-68" value="Printer ID" style="ellipse;whiteSpace=wrap;html=1;align=center;fontStyle=4;" vertex="1" parent="1">
          <mxGeometry x="280" y="630" width="100" height="40" as="geometry" />
        </mxCell>
        <mxCell id="NIIuqCuvEjQFVi8mQOJj-69" value="Name" style="ellipse;whiteSpace=wrap;html=1;align=center;" vertex="1" parent="1">
          <mxGeometry x="450" y="630" width="100" height="40" as="geometry" />
        </mxCell>
        <mxCell id="NIIuqCuvEjQFVi8mQOJj-70" value="labelPrinterModel" style="ellipse;whiteSpace=wrap;html=1;align=center;" vertex="1" parent="1">
          <mxGeometry x="590" y="650" width="100" height="40" as="geometry" />
        </mxCell>
        <mxCell id="NIIuqCuvEjQFVi8mQOJj-73" value="" style="endArrow=none;html=1;rounded=0;" edge="1" parent="1" source="NIIuqCuvEjQFVi8mQOJj-68" target="NIIuqCuvEjQFVi8mQOJj-67">
          <mxGeometry relative="1" as="geometry">
            <mxPoint x="330" y="780" as="sourcePoint" />
            <mxPoint x="490" y="780" as="targetPoint" />
          </mxGeometry>
        </mxCell>
        <mxCell id="NIIuqCuvEjQFVi8mQOJj-76" value="" style="endArrow=none;html=1;rounded=0;" edge="1" parent="1" source="NIIuqCuvEjQFVi8mQOJj-70" target="NIIuqCuvEjQFVi8mQOJj-67">
          <mxGeometry relative="1" as="geometry">
            <mxPoint x="387" y="697" as="sourcePoint" />
            <mxPoint x="518" y="780" as="targetPoint" />
          </mxGeometry>
        </mxCell>
        <mxCell id="NIIuqCuvEjQFVi8mQOJj-77" value="" style="endArrow=none;html=1;rounded=0;exitX=0.59;exitY=0.975;exitDx=0;exitDy=0;exitPerimeter=0;entryX=0.33;entryY=0.025;entryDx=0;entryDy=0;entryPerimeter=0;" edge="1" parent="1" source="NIIuqCuvEjQFVi8mQOJj-69" target="NIIuqCuvEjQFVi8mQOJj-67">
          <mxGeometry relative="1" as="geometry">
            <mxPoint x="460" y="720" as="sourcePoint" />
            <mxPoint x="528" y="790" as="targetPoint" />
          </mxGeometry>
        </mxCell>
        <mxCell id="NIIuqCuvEjQFVi8mQOJj-167" value="Label Generation Application" style="whiteSpace=wrap;html=1;align=center;" vertex="1" parent="1">
          <mxGeometry x="470" y="930" width="100" height="40" as="geometry" />
        </mxCell>
        <mxCell id="NIIuqCuvEjQFVi8mQOJj-168" value="App ID" style="ellipse;whiteSpace=wrap;html=1;align=center;fontStyle=4;" vertex="1" parent="1">
          <mxGeometry x="280" y="810" width="100" height="40" as="geometry" />
        </mxCell>
        <mxCell id="NIIuqCuvEjQFVi8mQOJj-169" value="Name" style="ellipse;whiteSpace=wrap;html=1;align=center;" vertex="1" parent="1">
          <mxGeometry x="395" y="810" width="100" height="40" as="geometry" />
        </mxCell>
        <mxCell id="NIIuqCuvEjQFVi8mQOJj-170" value="Version" style="ellipse;whiteSpace=wrap;html=1;align=center;" vertex="1" parent="1">
          <mxGeometry x="500" y="810" width="100" height="40" as="geometry" />
        </mxCell>
        <mxCell id="NIIuqCuvEjQFVi8mQOJj-173" value="" style="endArrow=none;html=1;rounded=0;" edge="1" parent="1" source="NIIuqCuvEjQFVi8mQOJj-168" target="NIIuqCuvEjQFVi8mQOJj-167">
          <mxGeometry relative="1" as="geometry">
            <mxPoint x="330" y="960" as="sourcePoint" />
            <mxPoint x="490" y="960" as="targetPoint" />
          </mxGeometry>
        </mxCell>
        <mxCell id="NIIuqCuvEjQFVi8mQOJj-176" value="" style="endArrow=none;html=1;rounded=0;" edge="1" parent="1" source="NIIuqCuvEjQFVi8mQOJj-170" target="NIIuqCuvEjQFVi8mQOJj-167">
          <mxGeometry relative="1" as="geometry">
            <mxPoint x="387" y="877" as="sourcePoint" />
            <mxPoint x="518" y="960" as="targetPoint" />
          </mxGeometry>
        </mxCell>
        <mxCell id="NIIuqCuvEjQFVi8mQOJj-177" value="" style="endArrow=none;html=1;rounded=0;exitX=0.5;exitY=1;exitDx=0;exitDy=0;" edge="1" parent="1" source="NIIuqCuvEjQFVi8mQOJj-169" target="NIIuqCuvEjQFVi8mQOJj-167">
          <mxGeometry relative="1" as="geometry">
            <mxPoint x="397" y="887" as="sourcePoint" />
            <mxPoint x="528" y="970" as="targetPoint" />
          </mxGeometry>
        </mxCell>
        <mxCell id="NIIuqCuvEjQFVi8mQOJj-178" value="Dispatch operator" style="whiteSpace=wrap;html=1;align=center;" vertex="1" parent="1">
          <mxGeometry x="450" y="1100" width="100" height="40" as="geometry" />
        </mxCell>
        <mxCell id="NIIuqCuvEjQFVi8mQOJj-179" value="Picker ID" style="ellipse;whiteSpace=wrap;html=1;align=center;fontStyle=4;" vertex="1" parent="1">
          <mxGeometry x="260" y="980" width="100" height="40" as="geometry" />
        </mxCell>
        <mxCell id="NIIuqCuvEjQFVi8mQOJj-180" value="Name" style="ellipse;whiteSpace=wrap;html=1;align=center;" vertex="1" parent="1">
          <mxGeometry x="370" y="980" width="100" height="40" as="geometry" />
        </mxCell>
        <mxCell id="NIIuqCuvEjQFVi8mQOJj-181" value="Email" style="ellipse;whiteSpace=wrap;html=1;align=center;" vertex="1" parent="1">
          <mxGeometry x="480" y="980" width="100" height="40" as="geometry" />
        </mxCell>
        <mxCell id="NIIuqCuvEjQFVi8mQOJj-182" value="Password" style="ellipse;whiteSpace=wrap;html=1;align=center;" vertex="1" parent="1">
          <mxGeometry x="610" y="980" width="100" height="40" as="geometry" />
        </mxCell>
        <mxCell id="NIIuqCuvEjQFVi8mQOJj-183" value="Role" style="ellipse;whiteSpace=wrap;html=1;align=center;" vertex="1" parent="1">
          <mxGeometry x="730" y="980" width="100" height="40" as="geometry" />
        </mxCell>
        <mxCell id="NIIuqCuvEjQFVi8mQOJj-184" value="" style="endArrow=none;html=1;rounded=0;" edge="1" parent="1" source="NIIuqCuvEjQFVi8mQOJj-179" target="NIIuqCuvEjQFVi8mQOJj-178">
          <mxGeometry relative="1" as="geometry">
            <mxPoint x="310" y="1130" as="sourcePoint" />
            <mxPoint x="470" y="1130" as="targetPoint" />
          </mxGeometry>
        </mxCell>
        <mxCell id="NIIuqCuvEjQFVi8mQOJj-185" value="" style="endArrow=none;html=1;rounded=0;exitX=0.28;exitY=0.925;exitDx=0;exitDy=0;exitPerimeter=0;entryX=0.94;entryY=0.025;entryDx=0;entryDy=0;entryPerimeter=0;" edge="1" parent="1" source="NIIuqCuvEjQFVi8mQOJj-183" target="NIIuqCuvEjQFVi8mQOJj-178">
          <mxGeometry relative="1" as="geometry">
            <mxPoint x="347" y="1027" as="sourcePoint" />
            <mxPoint x="478" y="1110" as="targetPoint" />
          </mxGeometry>
        </mxCell>
        <mxCell id="NIIuqCuvEjQFVi8mQOJj-186" value="" style="endArrow=none;html=1;rounded=0;exitX=0;exitY=1;exitDx=0;exitDy=0;entryX=0.75;entryY=0;entryDx=0;entryDy=0;" edge="1" parent="1" source="NIIuqCuvEjQFVi8mQOJj-182" target="NIIuqCuvEjQFVi8mQOJj-178">
          <mxGeometry relative="1" as="geometry">
            <mxPoint x="357" y="1037" as="sourcePoint" />
            <mxPoint x="488" y="1120" as="targetPoint" />
          </mxGeometry>
        </mxCell>
        <mxCell id="NIIuqCuvEjQFVi8mQOJj-187" value="" style="endArrow=none;html=1;rounded=0;" edge="1" parent="1" source="NIIuqCuvEjQFVi8mQOJj-181" target="NIIuqCuvEjQFVi8mQOJj-178">
          <mxGeometry relative="1" as="geometry">
            <mxPoint x="367" y="1047" as="sourcePoint" />
            <mxPoint x="498" y="1130" as="targetPoint" />
          </mxGeometry>
        </mxCell>
        <mxCell id="NIIuqCuvEjQFVi8mQOJj-188" value="" style="endArrow=none;html=1;rounded=0;exitX=0.5;exitY=1;exitDx=0;exitDy=0;" edge="1" parent="1" source="NIIuqCuvEjQFVi8mQOJj-180" target="NIIuqCuvEjQFVi8mQOJj-178">
          <mxGeometry relative="1" as="geometry">
            <mxPoint x="377" y="1057" as="sourcePoint" />
            <mxPoint x="508" y="1140" as="targetPoint" />
          </mxGeometry>
        </mxCell>
        <mxCell id="NIIuqCuvEjQFVi8mQOJj-189" value="Order" style="whiteSpace=wrap;html=1;align=center;" vertex="1" parent="1">
          <mxGeometry x="450" y="1280" width="100" height="40" as="geometry" />
        </mxCell>
        <mxCell id="NIIuqCuvEjQFVi8mQOJj-190" value="Order ID" style="ellipse;whiteSpace=wrap;html=1;align=center;fontStyle=4;" vertex="1" parent="1">
          <mxGeometry x="260" y="1160" width="100" height="40" as="geometry" />
        </mxCell>
        <mxCell id="NIIuqCuvEjQFVi8mQOJj-191" value="Date" style="ellipse;whiteSpace=wrap;html=1;align=center;" vertex="1" parent="1">
          <mxGeometry x="370" y="1160" width="100" height="40" as="geometry" />
        </mxCell>
        <mxCell id="NIIuqCuvEjQFVi8mQOJj-192" value="Status" style="ellipse;whiteSpace=wrap;html=1;align=center;" vertex="1" parent="1">
          <mxGeometry x="480" y="1160" width="100" height="40" as="geometry" />
        </mxCell>
        <mxCell id="NIIuqCuvEjQFVi8mQOJj-193" value="CustomerID(FK)" style="ellipse;whiteSpace=wrap;html=1;align=center;" vertex="1" parent="1">
          <mxGeometry x="610" y="1160" width="100" height="40" as="geometry" />
        </mxCell>
        <mxCell id="NIIuqCuvEjQFVi8mQOJj-195" value="" style="endArrow=none;html=1;rounded=0;" edge="1" parent="1" source="NIIuqCuvEjQFVi8mQOJj-190" target="NIIuqCuvEjQFVi8mQOJj-189">
          <mxGeometry relative="1" as="geometry">
            <mxPoint x="310" y="1310" as="sourcePoint" />
            <mxPoint x="470" y="1310" as="targetPoint" />
          </mxGeometry>
        </mxCell>
        <mxCell id="NIIuqCuvEjQFVi8mQOJj-197" value="" style="endArrow=none;html=1;rounded=0;exitX=0;exitY=1;exitDx=0;exitDy=0;entryX=0.75;entryY=0;entryDx=0;entryDy=0;" edge="1" parent="1" source="NIIuqCuvEjQFVi8mQOJj-193" target="NIIuqCuvEjQFVi8mQOJj-189">
          <mxGeometry relative="1" as="geometry">
            <mxPoint x="357" y="1217" as="sourcePoint" />
            <mxPoint x="488" y="1300" as="targetPoint" />
          </mxGeometry>
        </mxCell>
        <mxCell id="NIIuqCuvEjQFVi8mQOJj-198" value="" style="endArrow=none;html=1;rounded=0;" edge="1" parent="1" source="NIIuqCuvEjQFVi8mQOJj-192" target="NIIuqCuvEjQFVi8mQOJj-189">
          <mxGeometry relative="1" as="geometry">
            <mxPoint x="367" y="1227" as="sourcePoint" />
            <mxPoint x="498" y="1310" as="targetPoint" />
          </mxGeometry>
        </mxCell>
        <mxCell id="NIIuqCuvEjQFVi8mQOJj-199" value="" style="endArrow=none;html=1;rounded=0;exitX=0.5;exitY=1;exitDx=0;exitDy=0;" edge="1" parent="1" source="NIIuqCuvEjQFVi8mQOJj-191" target="NIIuqCuvEjQFVi8mQOJj-189">
          <mxGeometry relative="1" as="geometry">
            <mxPoint x="377" y="1237" as="sourcePoint" />
            <mxPoint x="508" y="1320" as="targetPoint" />
          </mxGeometry>
        </mxCell>
        <mxCell id="NIIuqCuvEjQFVi8mQOJj-200" value="Shipment" style="whiteSpace=wrap;html=1;align=center;" vertex="1" parent="1">
          <mxGeometry x="440" y="1460" width="100" height="40" as="geometry" />
        </mxCell>
        <mxCell id="NIIuqCuvEjQFVi8mQOJj-201" value="Shipment ID" style="ellipse;whiteSpace=wrap;html=1;align=center;fontStyle=4;" vertex="1" parent="1">
          <mxGeometry x="250" y="1340" width="100" height="40" as="geometry" />
        </mxCell>
        <mxCell id="NIIuqCuvEjQFVi8mQOJj-202" value="Date" style="ellipse;whiteSpace=wrap;html=1;align=center;" vertex="1" parent="1">
          <mxGeometry x="360" y="1340" width="100" height="40" as="geometry" />
        </mxCell>
        <mxCell id="NIIuqCuvEjQFVi8mQOJj-203" value="Status" style="ellipse;whiteSpace=wrap;html=1;align=center;" vertex="1" parent="1">
          <mxGeometry x="470" y="1340" width="100" height="40" as="geometry" />
        </mxCell>
        <mxCell id="NIIuqCuvEjQFVi8mQOJj-204" value="CourierServiceID(FK)" style="ellipse;whiteSpace=wrap;html=1;align=center;" vertex="1" parent="1">
          <mxGeometry x="600" y="1340" width="130" height="40" as="geometry" />
        </mxCell>
        <mxCell id="NIIuqCuvEjQFVi8mQOJj-206" value="" style="endArrow=none;html=1;rounded=0;" edge="1" parent="1" source="NIIuqCuvEjQFVi8mQOJj-201" target="NIIuqCuvEjQFVi8mQOJj-200">
          <mxGeometry relative="1" as="geometry">
            <mxPoint x="300" y="1490" as="sourcePoint" />
            <mxPoint x="460" y="1490" as="targetPoint" />
          </mxGeometry>
        </mxCell>
        <mxCell id="NIIuqCuvEjQFVi8mQOJj-208" value="" style="endArrow=none;html=1;rounded=0;exitX=0;exitY=1;exitDx=0;exitDy=0;entryX=0.75;entryY=0;entryDx=0;entryDy=0;" edge="1" parent="1" source="NIIuqCuvEjQFVi8mQOJj-204" target="NIIuqCuvEjQFVi8mQOJj-200">
          <mxGeometry relative="1" as="geometry">
            <mxPoint x="347" y="1397" as="sourcePoint" />
            <mxPoint x="478" y="1480" as="targetPoint" />
          </mxGeometry>
        </mxCell>
        <mxCell id="NIIuqCuvEjQFVi8mQOJj-209" value="" style="endArrow=none;html=1;rounded=0;" edge="1" parent="1" source="NIIuqCuvEjQFVi8mQOJj-203" target="NIIuqCuvEjQFVi8mQOJj-200">
          <mxGeometry relative="1" as="geometry">
            <mxPoint x="357" y="1407" as="sourcePoint" />
            <mxPoint x="488" y="1490" as="targetPoint" />
          </mxGeometry>
        </mxCell>
        <mxCell id="NIIuqCuvEjQFVi8mQOJj-210" value="" style="endArrow=none;html=1;rounded=0;exitX=0.5;exitY=1;exitDx=0;exitDy=0;" edge="1" parent="1" source="NIIuqCuvEjQFVi8mQOJj-202" target="NIIuqCuvEjQFVi8mQOJj-200">
          <mxGeometry relative="1" as="geometry">
            <mxPoint x="367" y="1417" as="sourcePoint" />
            <mxPoint x="498" y="1500" as="targetPoint" />
          </mxGeometry>
        </mxCell>
        <mxCell id="NIIuqCuvEjQFVi8mQOJj-211" value="Customer" style="whiteSpace=wrap;html=1;align=center;" vertex="1" parent="1">
          <mxGeometry x="425" y="1640" width="100" height="40" as="geometry" />
        </mxCell>
        <mxCell id="NIIuqCuvEjQFVi8mQOJj-212" value="Customer ID" style="ellipse;whiteSpace=wrap;html=1;align=center;fontStyle=4;" vertex="1" parent="1">
          <mxGeometry x="235" y="1520" width="100" height="40" as="geometry" />
        </mxCell>
        <mxCell id="NIIuqCuvEjQFVi8mQOJj-213" value="Name" style="ellipse;whiteSpace=wrap;html=1;align=center;" vertex="1" parent="1">
          <mxGeometry x="345" y="1520" width="100" height="40" as="geometry" />
        </mxCell>
        <mxCell id="NIIuqCuvEjQFVi8mQOJj-214" value="Email" style="ellipse;whiteSpace=wrap;html=1;align=center;" vertex="1" parent="1">
          <mxGeometry x="455" y="1520" width="100" height="40" as="geometry" />
        </mxCell>
        <mxCell id="NIIuqCuvEjQFVi8mQOJj-215" value="Address" style="ellipse;whiteSpace=wrap;html=1;align=center;" vertex="1" parent="1">
          <mxGeometry x="585" y="1520" width="100" height="40" as="geometry" />
        </mxCell>
        <mxCell id="NIIuqCuvEjQFVi8mQOJj-216" value="Phone" style="ellipse;whiteSpace=wrap;html=1;align=center;" vertex="1" parent="1">
          <mxGeometry x="705" y="1520" width="100" height="40" as="geometry" />
        </mxCell>
        <mxCell id="NIIuqCuvEjQFVi8mQOJj-217" value="" style="endArrow=none;html=1;rounded=0;" edge="1" parent="1" source="NIIuqCuvEjQFVi8mQOJj-212" target="NIIuqCuvEjQFVi8mQOJj-211">
          <mxGeometry relative="1" as="geometry">
            <mxPoint x="285" y="1670" as="sourcePoint" />
            <mxPoint x="445" y="1670" as="targetPoint" />
          </mxGeometry>
        </mxCell>
        <mxCell id="NIIuqCuvEjQFVi8mQOJj-218" value="" style="endArrow=none;html=1;rounded=0;exitX=0.28;exitY=0.925;exitDx=0;exitDy=0;exitPerimeter=0;entryX=0.94;entryY=0.025;entryDx=0;entryDy=0;entryPerimeter=0;" edge="1" parent="1" source="NIIuqCuvEjQFVi8mQOJj-216" target="NIIuqCuvEjQFVi8mQOJj-211">
          <mxGeometry relative="1" as="geometry">
            <mxPoint x="322" y="1567" as="sourcePoint" />
            <mxPoint x="453" y="1650" as="targetPoint" />
          </mxGeometry>
        </mxCell>
        <mxCell id="NIIuqCuvEjQFVi8mQOJj-219" value="" style="endArrow=none;html=1;rounded=0;exitX=0;exitY=1;exitDx=0;exitDy=0;entryX=0.75;entryY=0;entryDx=0;entryDy=0;" edge="1" parent="1" source="NIIuqCuvEjQFVi8mQOJj-215" target="NIIuqCuvEjQFVi8mQOJj-211">
          <mxGeometry relative="1" as="geometry">
            <mxPoint x="332" y="1577" as="sourcePoint" />
            <mxPoint x="463" y="1660" as="targetPoint" />
          </mxGeometry>
        </mxCell>
        <mxCell id="NIIuqCuvEjQFVi8mQOJj-220" value="" style="endArrow=none;html=1;rounded=0;" edge="1" parent="1" source="NIIuqCuvEjQFVi8mQOJj-214" target="NIIuqCuvEjQFVi8mQOJj-211">
          <mxGeometry relative="1" as="geometry">
            <mxPoint x="342" y="1587" as="sourcePoint" />
            <mxPoint x="473" y="1670" as="targetPoint" />
          </mxGeometry>
        </mxCell>
        <mxCell id="NIIuqCuvEjQFVi8mQOJj-221" value="" style="endArrow=none;html=1;rounded=0;exitX=0.5;exitY=1;exitDx=0;exitDy=0;" edge="1" parent="1" source="NIIuqCuvEjQFVi8mQOJj-213" target="NIIuqCuvEjQFVi8mQOJj-211">
          <mxGeometry relative="1" as="geometry">
            <mxPoint x="352" y="1597" as="sourcePoint" />
            <mxPoint x="483" y="1680" as="targetPoint" />
          </mxGeometry>
        </mxCell>
        <mxCell id="NIIuqCuvEjQFVi8mQOJj-222" value="Stock" style="whiteSpace=wrap;html=1;align=center;" vertex="1" parent="1">
          <mxGeometry x="425" y="1810" width="100" height="40" as="geometry" />
        </mxCell>
        <mxCell id="NIIuqCuvEjQFVi8mQOJj-223" value="Stock ID" style="ellipse;whiteSpace=wrap;html=1;align=center;fontStyle=4;" vertex="1" parent="1">
          <mxGeometry x="235" y="1690" width="100" height="40" as="geometry" />
        </mxCell>
        <mxCell id="NIIuqCuvEjQFVi8mQOJj-224" value="ProductID(FK)" style="ellipse;whiteSpace=wrap;html=1;align=center;" vertex="1" parent="1">
          <mxGeometry x="345" y="1690" width="100" height="40" as="geometry" />
        </mxCell>
        <mxCell id="NIIuqCuvEjQFVi8mQOJj-225" value="Quantity" style="ellipse;whiteSpace=wrap;html=1;align=center;" vertex="1" parent="1">
          <mxGeometry x="455" y="1690" width="100" height="40" as="geometry" />
        </mxCell>
        <mxCell id="NIIuqCuvEjQFVi8mQOJj-226" value="Location" style="ellipse;whiteSpace=wrap;html=1;align=center;" vertex="1" parent="1">
          <mxGeometry x="585" y="1690" width="100" height="40" as="geometry" />
        </mxCell>
        <mxCell id="NIIuqCuvEjQFVi8mQOJj-228" value="" style="endArrow=none;html=1;rounded=0;" edge="1" parent="1" source="NIIuqCuvEjQFVi8mQOJj-223" target="NIIuqCuvEjQFVi8mQOJj-222">
          <mxGeometry relative="1" as="geometry">
            <mxPoint x="285" y="1840" as="sourcePoint" />
            <mxPoint x="445" y="1840" as="targetPoint" />
          </mxGeometry>
        </mxCell>
        <mxCell id="NIIuqCuvEjQFVi8mQOJj-230" value="" style="endArrow=none;html=1;rounded=0;exitX=0;exitY=1;exitDx=0;exitDy=0;entryX=0.75;entryY=0;entryDx=0;entryDy=0;" edge="1" parent="1" source="NIIuqCuvEjQFVi8mQOJj-226" target="NIIuqCuvEjQFVi8mQOJj-222">
          <mxGeometry relative="1" as="geometry">
            <mxPoint x="332" y="1747" as="sourcePoint" />
            <mxPoint x="463" y="1830" as="targetPoint" />
          </mxGeometry>
        </mxCell>
        <mxCell id="NIIuqCuvEjQFVi8mQOJj-231" value="" style="endArrow=none;html=1;rounded=0;" edge="1" parent="1" source="NIIuqCuvEjQFVi8mQOJj-225" target="NIIuqCuvEjQFVi8mQOJj-222">
          <mxGeometry relative="1" as="geometry">
            <mxPoint x="342" y="1757" as="sourcePoint" />
            <mxPoint x="473" y="1840" as="targetPoint" />
          </mxGeometry>
        </mxCell>
        <mxCell id="NIIuqCuvEjQFVi8mQOJj-232" value="" style="endArrow=none;html=1;rounded=0;exitX=0.5;exitY=1;exitDx=0;exitDy=0;" edge="1" parent="1" source="NIIuqCuvEjQFVi8mQOJj-224" target="NIIuqCuvEjQFVi8mQOJj-222">
          <mxGeometry relative="1" as="geometry">
            <mxPoint x="352" y="1767" as="sourcePoint" />
            <mxPoint x="483" y="1850" as="targetPoint" />
          </mxGeometry>
        </mxCell>
        <mxCell id="NIIuqCuvEjQFVi8mQOJj-249" value="Role" style="ellipse;whiteSpace=wrap;html=1;align=center;" vertex="1" parent="1">
          <mxGeometry x="940" y="440" width="100" height="40" as="geometry" />
        </mxCell>
        <mxCell id="NIIuqCuvEjQFVi8mQOJj-255" value="Product" style="whiteSpace=wrap;html=1;align=center;" vertex="1" parent="1">
          <mxGeometry x="400" y="2150" width="100" height="40" as="geometry" />
        </mxCell>
        <mxCell id="NIIuqCuvEjQFVi8mQOJj-256" value="Product ID" style="ellipse;whiteSpace=wrap;html=1;align=center;fontStyle=4;" vertex="1" parent="1">
          <mxGeometry x="210" y="2030" width="100" height="40" as="geometry" />
        </mxCell>
        <mxCell id="NIIuqCuvEjQFVi8mQOJj-257" value="Name" style="ellipse;whiteSpace=wrap;html=1;align=center;" vertex="1" parent="1">
          <mxGeometry x="320" y="2030" width="100" height="40" as="geometry" />
        </mxCell>
        <mxCell id="NIIuqCuvEjQFVi8mQOJj-258" value="Description" style="ellipse;whiteSpace=wrap;html=1;align=center;" vertex="1" parent="1">
          <mxGeometry x="430" y="2030" width="100" height="40" as="geometry" />
        </mxCell>
        <mxCell id="NIIuqCuvEjQFVi8mQOJj-259" value="StockQuantity" style="ellipse;whiteSpace=wrap;html=1;align=center;" vertex="1" parent="1">
          <mxGeometry x="560" y="2030" width="100" height="40" as="geometry" />
        </mxCell>
        <mxCell id="NIIuqCuvEjQFVi8mQOJj-260" value="Price" style="ellipse;whiteSpace=wrap;html=1;align=center;" vertex="1" parent="1">
          <mxGeometry x="680" y="2030" width="100" height="40" as="geometry" />
        </mxCell>
        <mxCell id="NIIuqCuvEjQFVi8mQOJj-261" value="" style="endArrow=none;html=1;rounded=0;" edge="1" parent="1" source="NIIuqCuvEjQFVi8mQOJj-256" target="NIIuqCuvEjQFVi8mQOJj-255">
          <mxGeometry relative="1" as="geometry">
            <mxPoint x="260" y="2180" as="sourcePoint" />
            <mxPoint x="420" y="2180" as="targetPoint" />
          </mxGeometry>
        </mxCell>
        <mxCell id="NIIuqCuvEjQFVi8mQOJj-262" value="" style="endArrow=none;html=1;rounded=0;exitX=0.28;exitY=0.925;exitDx=0;exitDy=0;exitPerimeter=0;entryX=0.94;entryY=0.025;entryDx=0;entryDy=0;entryPerimeter=0;" edge="1" parent="1" source="NIIuqCuvEjQFVi8mQOJj-260" target="NIIuqCuvEjQFVi8mQOJj-255">
          <mxGeometry relative="1" as="geometry">
            <mxPoint x="297" y="2077" as="sourcePoint" />
            <mxPoint x="428" y="2160" as="targetPoint" />
          </mxGeometry>
        </mxCell>
        <mxCell id="NIIuqCuvEjQFVi8mQOJj-263" value="" style="endArrow=none;html=1;rounded=0;exitX=0;exitY=1;exitDx=0;exitDy=0;entryX=0.75;entryY=0;entryDx=0;entryDy=0;" edge="1" parent="1" source="NIIuqCuvEjQFVi8mQOJj-259" target="NIIuqCuvEjQFVi8mQOJj-255">
          <mxGeometry relative="1" as="geometry">
            <mxPoint x="307" y="2087" as="sourcePoint" />
            <mxPoint x="438" y="2170" as="targetPoint" />
          </mxGeometry>
        </mxCell>
        <mxCell id="NIIuqCuvEjQFVi8mQOJj-264" value="" style="endArrow=none;html=1;rounded=0;" edge="1" parent="1" source="NIIuqCuvEjQFVi8mQOJj-258" target="NIIuqCuvEjQFVi8mQOJj-255">
          <mxGeometry relative="1" as="geometry">
            <mxPoint x="317" y="2097" as="sourcePoint" />
            <mxPoint x="448" y="2180" as="targetPoint" />
          </mxGeometry>
        </mxCell>
        <mxCell id="NIIuqCuvEjQFVi8mQOJj-265" value="" style="endArrow=none;html=1;rounded=0;exitX=0.5;exitY=1;exitDx=0;exitDy=0;" edge="1" parent="1" source="NIIuqCuvEjQFVi8mQOJj-257" target="NIIuqCuvEjQFVi8mQOJj-255">
          <mxGeometry relative="1" as="geometry">
            <mxPoint x="327" y="2107" as="sourcePoint" />
            <mxPoint x="458" y="2190" as="targetPoint" />
          </mxGeometry>
        </mxCell>
        <mxCell id="NIIuqCuvEjQFVi8mQOJj-266" value="Courier Service" style="whiteSpace=wrap;html=1;align=center;" vertex="1" parent="1">
          <mxGeometry x="395" y="2340" width="100" height="40" as="geometry" />
        </mxCell>
        <mxCell id="NIIuqCuvEjQFVi8mQOJj-267" value="CourierService ID" style="ellipse;whiteSpace=wrap;html=1;align=center;fontStyle=4;" vertex="1" parent="1">
          <mxGeometry x="205" y="2220" width="100" height="40" as="geometry" />
        </mxCell>
        <mxCell id="NIIuqCuvEjQFVi8mQOJj-268" value="Name" style="ellipse;whiteSpace=wrap;html=1;align=center;" vertex="1" parent="1">
          <mxGeometry x="315" y="2220" width="100" height="40" as="geometry" />
        </mxCell>
        <mxCell id="NIIuqCuvEjQFVi8mQOJj-269" value="Contact" style="ellipse;whiteSpace=wrap;html=1;align=center;" vertex="1" parent="1">
          <mxGeometry x="425" y="2220" width="100" height="40" as="geometry" />
        </mxCell>
        <mxCell id="NIIuqCuvEjQFVi8mQOJj-270" value="Location" style="ellipse;whiteSpace=wrap;html=1;align=center;" vertex="1" parent="1">
          <mxGeometry x="555" y="2220" width="100" height="40" as="geometry" />
        </mxCell>
        <mxCell id="NIIuqCuvEjQFVi8mQOJj-271" value="Company" style="ellipse;whiteSpace=wrap;html=1;align=center;" vertex="1" parent="1">
          <mxGeometry x="675" y="2220" width="100" height="40" as="geometry" />
        </mxCell>
        <mxCell id="NIIuqCuvEjQFVi8mQOJj-272" value="" style="endArrow=none;html=1;rounded=0;" edge="1" parent="1" source="NIIuqCuvEjQFVi8mQOJj-267" target="NIIuqCuvEjQFVi8mQOJj-266">
          <mxGeometry relative="1" as="geometry">
            <mxPoint x="255" y="2370" as="sourcePoint" />
            <mxPoint x="415" y="2370" as="targetPoint" />
          </mxGeometry>
        </mxCell>
        <mxCell id="NIIuqCuvEjQFVi8mQOJj-273" value="" style="endArrow=none;html=1;rounded=0;exitX=0.28;exitY=0.925;exitDx=0;exitDy=0;exitPerimeter=0;entryX=0.94;entryY=0.025;entryDx=0;entryDy=0;entryPerimeter=0;" edge="1" parent="1" source="NIIuqCuvEjQFVi8mQOJj-271" target="NIIuqCuvEjQFVi8mQOJj-266">
          <mxGeometry relative="1" as="geometry">
            <mxPoint x="292" y="2267" as="sourcePoint" />
            <mxPoint x="423" y="2350" as="targetPoint" />
          </mxGeometry>
        </mxCell>
        <mxCell id="NIIuqCuvEjQFVi8mQOJj-274" value="" style="endArrow=none;html=1;rounded=0;exitX=0;exitY=1;exitDx=0;exitDy=0;entryX=0.75;entryY=0;entryDx=0;entryDy=0;" edge="1" parent="1" source="NIIuqCuvEjQFVi8mQOJj-270" target="NIIuqCuvEjQFVi8mQOJj-266">
          <mxGeometry relative="1" as="geometry">
            <mxPoint x="302" y="2277" as="sourcePoint" />
            <mxPoint x="433" y="2360" as="targetPoint" />
          </mxGeometry>
        </mxCell>
        <mxCell id="NIIuqCuvEjQFVi8mQOJj-275" value="" style="endArrow=none;html=1;rounded=0;" edge="1" parent="1" source="NIIuqCuvEjQFVi8mQOJj-269" target="NIIuqCuvEjQFVi8mQOJj-266">
          <mxGeometry relative="1" as="geometry">
            <mxPoint x="312" y="2287" as="sourcePoint" />
            <mxPoint x="443" y="2370" as="targetPoint" />
          </mxGeometry>
        </mxCell>
        <mxCell id="NIIuqCuvEjQFVi8mQOJj-276" value="" style="endArrow=none;html=1;rounded=0;exitX=0.5;exitY=1;exitDx=0;exitDy=0;" edge="1" parent="1" source="NIIuqCuvEjQFVi8mQOJj-268" target="NIIuqCuvEjQFVi8mQOJj-266">
          <mxGeometry relative="1" as="geometry">
            <mxPoint x="322" y="2297" as="sourcePoint" />
            <mxPoint x="453" y="2380" as="targetPoint" />
          </mxGeometry>
        </mxCell>
      </root>
    </mxGraphModel>
  </diagram>
</mxfile>
